<?xml version="1.0" encoding="UTF-8"?>
<svg id="Layer_1" data-name="Layer 1" xmlns="http://www.w3.org/2000/svg" viewBox="0 0 80 80">
  <defs>
    <style>
      .cls-1 {
        fill: #fff;
      }
    </style>
  </defs>
  <path class="cls-1" d="M54.44,41.12s-.03-.02-.05-.02c-.25-.02-.3-.17-.28-.4,.06-.64,.1-1.28,.05-1.93-.06-.94-.06-.94,.84-1.26,.82-.29,1.14-.92,.88-1.75-.22-.72-.5-1.43-.69-2.16-.41-1.61-1.22-1.85-2.51-1.29-.28,.12-.43,.03-.57-.22-.3-.55-.68-1.05-1.07-1.55q-.56-.71-.03-1.47c.5-.74,.38-1.43-.34-1.97-.57-.42-1.17-.8-1.71-1.25-1.37-1.14-2.19-.86-2.9,.4-.13,.24-.28,.23-.51,.12-.58-.27-1.2-.47-1.82-.64q-.88-.24-.9-1.17c-.03-.9-.53-1.39-1.43-1.39-.74,0-1.48,.03-2.22,0-1.56-.09-2.15,.45-2.01,1.98,.03,.31-.09,.41-.39,.47-.61,.12-1.21,.32-1.8,.54-.86,.32-.87,.32-1.42-.41-.54-.72-1.24-.83-1.97-.31-.6,.43-1.18,.9-1.8,1.3-1.41,.9-1.43,1.73-.46,2.82,.2,.22,.15,.37-.03,.57-.43,.46-.79,.97-1.14,1.49q-.52,.77-1.43,.51c-.81-.24-1.44,.07-1.72,.87-.25,.71-.43,1.45-.71,2.15-.64,1.59-.1,2.28,1.26,2.56,.02,0,.03,.01,.05,.02,.24,.03,.3,.17,.28,.4-.06,.64-.1,1.28-.05,1.93,.06,.93,.06,.93-.84,1.26-.83,.3-1.14,.91-.89,1.75,.22,.72,.51,1.43,.69,2.16,.41,1.61,1.22,1.85,2.5,1.3,.28-.12,.43-.03,.57,.22,.31,.56,.7,1.08,1.1,1.59q.54,.68,.04,1.4c-.53,.76-.43,1.46,.31,2.01,.75,.56,1.5,1.1,2.26,1.65,.76,.55,1.46,.44,2.01-.3,.12-.16,.24-.31,.33-.47,.13-.22,.27-.25,.51-.14,.57,.26,1.17,.45,1.77,.63,.93,.26,.93,.27,.96,1.22,.03,.86,.54,1.35,1.42,1.36,.72,0,1.45-.04,2.17,0,1.73,.11,2.22-.56,2.07-2.02-.03-.25,.06-.37,.33-.42,.66-.13,1.31-.34,1.94-.58q.79-.3,1.3,.39c.57,.77,1.26,.89,2.04,.33,.59-.42,1.15-.88,1.76-1.27,1.45-.92,1.41-1.76,.47-2.82-.19-.22-.16-.37,.03-.57,.56-.6,1.04-1.27,1.45-1.99,.15-.27,.31-.3,.58-.2,.33,.12,.66,.27,1.02,.26,.6,0,1.04-.32,1.25-.94,.24-.71,.43-1.45,.71-2.15,.6-1.49,.22-2.23-1.26-2.57Zm-.3,2.34c-.15,.46-.3,.92-.43,1.38-.07,.23-.16,.38-.43,.24-.13-.07-.27-.1-.41-.14-.89-.29-1.39-.1-1.86,.7-.49,.83-1.06,1.61-1.7,2.33-.57,.64-.59,1.2-.09,1.91q.47,.67-.18,1.14c-.39,.28-.79,.56-1.17,.86-.2,.16-.3,.12-.45-.08-1-1.3-1.11-1.32-2.65-.69-.71,.29-1.45,.52-2.21,.67-.91,.19-1.26,.62-1.26,1.54q0,.79-.81,.79c-.47,0-.93-.01-1.4,0-.26,.01-.39-.05-.35-.34,.02-.16,0-.32,0-.48-.01-.87-.36-1.32-1.2-1.5-.96-.2-1.89-.51-2.79-.9-.81-.35-1.32-.2-1.84,.5q-.49,.66-1.15,.18c-.39-.28-.77-.59-1.17-.85-.23-.15-.22-.26-.06-.44,.15-.17,.27-.36,.4-.55,.37-.56,.36-1.14-.09-1.64-.72-.81-1.35-1.68-1.9-2.61-.39-.66-.94-.81-1.76-.55q-.74,.24-.98-.5c-.15-.47-.3-.95-.47-1.42-.07-.21-.03-.3,.19-.38,1.64-.64,1.64-.64,1.5-2.39-.06-.76,0-1.51,.05-2.27,.07-.94-.2-1.35-1.11-1.65q-.7-.23-.47-.95c.15-.47,.32-.94,.45-1.42,.07-.25,.18-.32,.41-.22,1.35,.59,1.93,.23,2.59-1.03,.34-.66,.83-1.22,1.33-1.77,.66-.73,.68-1.27,.11-2.06q-.43-.59,.15-1.01c.42-.3,.84-.6,1.25-.91,.19-.15,.29-.14,.45,.06,1.03,1.32,1.12,1.33,2.65,.7,.7-.29,1.42-.5,2.16-.66,1.02-.23,1.32-.61,1.32-1.64q0-.7,.71-.7c.52,0,1.03,.01,1.55,0,.26-.01,.34,.08,.31,.33-.02,.19,0,.39,0,.58,.02,.77,.39,1.25,1.14,1.4,.98,.2,1.92,.51,2.84,.91,.81,.35,1.33,.21,1.85-.49q.49-.67,1.15-.19c.4,.29,.8,.59,1.21,.88,.17,.12,.19,.19,.07,.38q-.95,1.47,.18,2.85c.51,.62,.96,1.29,1.36,1.99,.26,.46,.66,.69,1.29,.67,.25,0,.56-.15,.88-.26,.25-.09,.37-.06,.45,.21,.18,.62,.39,1.23,.6,1.83,.08,.23,.03,.35-.21,.41-.17,.04-.34,.1-.51,.15-.79,.27-1.09,.7-1.02,1.52,.09,1,.09,1.99,0,2.99-.08,.91,.22,1.34,1.09,1.62q.72,.23,.49,.97Z"/>
  <path class="cls-1" d="M51.01,18.58c-.52,.98-.52,.98-1.52,.51-13.09-6.13-28.55,1.64-31.44,15.81-1.04,5.07-.38,9.92,1.92,14.55,.18,.37,.11,.51-.23,.68-.96,.48-.95,.5-1.41-.5-1.54-3.29-2.3-6.75-2.29-10.28,.05-10.41,6.69-19.56,16.61-22.74,6.23-2,12.31-1.49,18.19,1.4,.32,.16,.34,.28,.18,.56Z"/>
  <path class="cls-1" d="M63.97,40.47c-.1,8.95-6.3,17.87-15.22,21.26-6.6,2.51-13.1,2.2-19.46-.86-.39-.18-.46-.34-.23-.73,.5-.85,.47-.86,1.35-.45,13.07,6.14,28.42-1.39,31.51-15.48,1.12-5.13,.48-10.07-1.84-14.79-.17-.35-.21-.52,.2-.72,.96-.47,.95-.49,1.41,.49,1.6,3.41,2.35,6.99,2.28,11.28Z"/>
  <path class="cls-1" d="M59.73,20.96c0-.59-.29-.88-.89-.89-1.46,0-2.93,0-4.39,0-.6,0-.89,.29-.9,.88,0,1.46,0,2.93,0,4.39,0,.63,.29,.91,.92,.91,1.45,0,2.9,0,4.34,0,.63,0,.92-.28,.92-.91,0-.72,0-1.45,0-2.17s0-1.48,0-2.22Zm-1.84,3.76c-.84-.01-1.67-.01-2.51,0-.24,0-.29-.08-.29-.3,.01-.84,.01-1.68,0-2.51,0-.24,.08-.3,.3-.29,.42,.02,.84,0,1.26,0,.42,0,.84,.01,1.26,0,.24-.01,.29,.08,.29,.3-.01,.84-.01,1.67,0,2.51,0,.24-.08,.29-.3,.29Z"/>
  <path class="cls-1" d="M26.46,53.41c0-.54-.3-.84-.84-.84-1.5,0-2.99,0-4.49,0-.56,0-.85,.3-.86,.87,0,.72,0,1.45,0,2.17s0,1.51,0,2.27c0,.57,.3,.86,.86,.87,1.48,0,2.96,0,4.44,0,.57,0,.88-.29,.88-.85,0-1.5,0-2.99,0-4.49Zm-1.62,3.69c-.29,.32-.97,.08-1.48,.1-.5,.01-1.17,.18-1.45-.07-.32-.29-.06-.97-.08-1.47,0-.5-.2-1.17,.05-1.45,.28-.32,.97-.08,1.48-.1,.5-.01,1.17-.18,1.44,.07,.32,.29,.08,.97,.1,1.48,.01,.5,.18,1.17-.07,1.45Z"/>
  <path class="cls-1" d="M39.94,29.36c-5.47-.02-9.98,4.51-10,10.05-.02,5.5,4.49,10.04,9.99,10.06,5.53,.02,10.1-4.46,10.12-9.93,.02-5.67-4.44-10.16-10.11-10.18Zm.03,18.56c-4.68,0-8.48-3.82-8.48-8.53,0-4.65,3.84-8.49,8.49-8.48,4.71,0,8.54,3.82,8.53,8.49-.01,4.74-3.8,8.53-8.53,8.53Z"/>
  <path class="cls-1" d="M44.51,38.67c-2.23-1.25-4.46-2.48-6.7-3.71-.73-.4-1.28-.07-1.29,.76,0,1.22,0,2.45,0,3.67s0,2.48,0,3.72c0,.83,.55,1.17,1.28,.77,2.24-1.23,4.47-2.47,6.7-3.71,.71-.4,.71-1.1,0-1.5Zm-6.41,3.28v-5.07c1.52,.85,3,1.67,4.56,2.54-1.54,.86-3.03,1.69-4.56,2.54Z"/>
</svg>